<?xml version="1.0" encoding="utf-8"?>
<svg version="1.1" id="Layer_1" xmlns="http://www.w3.org/2000/svg" xmlns:xlink="http://www.w3.org/1999/xlink" x="0px" y="0px"
	 viewBox="0 0 512 512" style="enable-background:new 0 0 512 512;" xml:space="preserve">
<g transform="translate(0.000000,512.000000) scale(0.100000,-0.100000)">
	<path d="M2005,3604c-121-85-227-159-235-164s-12-11-9-14c6-7,1603-684,1606-682c1,1-1,127-5,280l-7,279l-530,213
		c-291,118-546,220-565,228l-35,14L2005,3604z"/>
	<path d="M1750,2320v-960h200h200l2,720c2,396,3,793,3,883v162l-195,77c-107,43-198,78-202,78C1753,3280,1750,2848,1750,2320z"/>
	<path d="M2508,2762l-268-115v-240c0-215,2-239,16-233c70,27,1094,469,1092,472c-11,10-545,234-558,233
		C2782,2878,2655,2826,2508,2762z"/>
</g>
</svg>
